<svg width="16" height="16" viewBox="0 0 16 16" fill="none" xmlns="http://www.w3.org/2000/svg">
<path d="M7.33301 11.3333H8.66634V8.66668H11.333V7.33334H8.66634V4.66668H7.33301V7.33334H4.66634V8.66668H7.33301V11.3333ZM7.99967 14.6667C7.07745 14.6667 6.21079 14.4945 5.39967 14.15C4.58856 13.7945 3.88301 13.3167 3.28301 12.7167C2.68301 12.1167 2.20523 11.4111 1.84967 10.6C1.50523 9.7889 1.33301 8.92223 1.33301 8.00001C1.33301 7.07779 1.50523 6.21112 1.84967 5.40001C2.20523 4.5889 2.68301 3.88334 3.28301 3.28334C3.88301 2.68334 4.58856 2.21112 5.39967 1.86668C6.21079 1.51112 7.07745 1.33334 7.99967 1.33334C8.9219 1.33334 9.78856 1.51112 10.5997 1.86668C11.4108 2.21112 12.1163 2.68334 12.7163 3.28334C13.3163 3.88334 13.7886 4.5889 14.133 5.40001C14.4886 6.21112 14.6663 7.07779 14.6663 8.00001C14.6663 8.92223 14.4886 9.7889 14.133 10.6C13.7886 11.4111 13.3163 12.1167 12.7163 12.7167C12.1163 13.3167 11.4108 13.7945 10.5997 14.15C9.78856 14.4945 8.9219 14.6667 7.99967 14.6667ZM7.99967 13.3333C9.48856 13.3333 10.7497 12.8167 11.783 11.7833C12.8163 10.75 13.333 9.4889 13.333 8.00001C13.333 6.51112 12.8163 5.25001 11.783 4.21668C10.7497 3.18334 9.48856 2.66668 7.99967 2.66668C6.51079 2.66668 5.24967 3.18334 4.21634 4.21668C3.18301 5.25001 2.66634 6.51112 2.66634 8.00001C2.66634 9.4889 3.18301 10.75 4.21634 11.7833C5.24967 12.8167 6.51079 13.3333 7.99967 13.3333Z" fill="#38AEE0"/>
</svg>
