<svg width="20" height="20" viewBox="0 0 20 20" fill="none" xmlns="http://www.w3.org/2000/svg">
<path d="M7.5 13.75C6.91667 13.75 6.42361 13.5486 6.02083 13.1459C5.61806 12.7431 5.41667 12.25 5.41667 11.6667C5.41667 11.0834 5.61806 10.5903 6.02083 10.1875C6.42361 9.78474 6.91667 9.58335 7.5 9.58335C8.08333 9.58335 8.57639 9.78474 8.97917 10.1875C9.38194 10.5903 9.58333 11.0834 9.58333 11.6667C9.58333 12.25 9.38194 12.7431 8.97917 13.1459C8.57639 13.5486 8.08333 13.75 7.5 13.75ZM4.16667 18.3334C3.70833 18.3334 3.31597 18.1702 2.98958 17.8438C2.66319 17.5174 2.5 17.125 2.5 16.6667V5.00002C2.5 4.54169 2.66319 4.14933 2.98958 3.82294C3.31597 3.49655 3.70833 3.33335 4.16667 3.33335H5V1.66669H6.66667V3.33335H13.3333V1.66669H15V3.33335H15.8333C16.2917 3.33335 16.684 3.49655 17.0104 3.82294C17.3368 4.14933 17.5 4.54169 17.5 5.00002V16.6667C17.5 17.125 17.3368 17.5174 17.0104 17.8438C16.684 18.1702 16.2917 18.3334 15.8333 18.3334H4.16667ZM4.16667 16.6667H15.8333V8.33335H4.16667V16.6667Z" fill="#667185"/>
</svg>
