<svg width="16" height="17" viewBox="0 0 16 17" fill="none" xmlns="http://www.w3.org/2000/svg">
<path d="M4.66073 1.44643H4.5C4.58839 1.44643 4.66073 1.37411 4.66073 1.28571V1.44643H10.7679V1.28571C10.7679 1.37411 10.8402 1.44643 10.9286 1.44643H10.7679V2.89286H12.2143V1.28571C12.2143 0.576563 11.6377 0 10.9286 0H4.5C3.79084 0 3.21429 0.576563 3.21429 1.28571V2.89286H4.66073V1.44643ZM14.7857 2.89286H0.642859C0.287277 2.89286 0 3.18014 0 3.53571V4.17859C0 4.26698 0.0723214 4.33927 0.160714 4.33927H1.37411L1.87031 14.846C1.90245 15.531 2.46897 16.0714 3.15402 16.0714H12.2745C12.9616 16.0714 13.5261 15.533 13.5583 14.846L14.0545 4.33927H15.2679C15.3562 4.33927 15.4286 4.26698 15.4286 4.17859V3.53571C15.4286 3.18014 15.1413 2.89286 14.7857 2.89286ZM12.1199 14.625H3.30871L2.82255 4.33927H12.606L12.1199 14.625Z" fill="#FF4D4F"/>
</svg>
