<svg width="24" height="26" viewBox="0 0 24 26" fill="none" xmlns="http://www.w3.org/2000/svg">
<path d="M17.1583 14.4083L12.4916 19.075C12.036 19.5306 11.2973 19.5306 10.8417 19.075L6.17504 14.4083C5.71943 13.9527 5.71943 13.214 6.17504 12.7584C6.63065 12.3028 7.36935 12.3028 7.82496 12.7584L10.5 15.4334V1.91667C10.5 1.27233 11.0223 0.75 11.6667 0.75C12.311 0.75 12.8333 1.27233 12.8333 1.91667V15.4334L15.5084 12.7584C15.964 12.3028 16.7027 12.3028 17.1583 12.7584C17.6139 13.214 17.6139 13.9527 17.1583 14.4083Z" fill="#D42620"/>
<path d="M2.33333 18.8333C2.33333 18.189 1.811 17.6667 1.16667 17.6667C0.522334 17.6667 0 18.189 0 18.8333V20.5833C0 23.1607 2.08934 25.25 4.66667 25.25H18.6667C21.244 25.25 23.3333 23.1607 23.3333 20.5833V18.8333C23.3333 18.189 22.811 17.6667 22.1667 17.6667C21.5223 17.6667 21 18.189 21 18.8333V20.5833C21 21.872 19.9553 22.9167 18.6667 22.9167H4.66667C3.378 22.9167 2.33333 21.872 2.33333 20.5833V18.8333Z" fill="#D42620"/>
</svg>
