<svg width="14" height="14" viewBox="0 0 14 14" fill="none" xmlns="http://www.w3.org/2000/svg">
<mask id="mask0_1003_5493" style="mask-type:luminance" maskUnits="userSpaceOnUse" x="0" y="0" width="14" height="14">
<path d="M0 0H14V14H0V0Z" fill="white"/>
</mask>
<g mask="url(#mask0_1003_5493)">
<mask id="mask1_1003_5493" style="mask-type:luminance" maskUnits="userSpaceOnUse" x="0" y="0" width="14" height="14">
<path d="M0 0H14V14H0V0Z" fill="white"/>
</mask>
<g mask="url(#mask1_1003_5493)">
<path fill-rule="evenodd" clip-rule="evenodd" d="M6.41602 11.6668C6.41602 11.989 6.67719 12.2502 6.99935 12.2502H12.2493C12.5715 12.2502 12.8327 11.989 12.8327 11.6668C12.8327 11.3447 12.5715 11.0835 12.2493 11.0835H6.99935C6.67719 11.0835 6.41602 11.3447 6.41602 11.6668Z" fill="#606060"/>
<path d="M9.21211 1.62948C9.56766 1.27395 9.99683 1.09619 10.4996 1.09619C11.0024 1.09619 11.4316 1.27395 11.7871 1.62948C12.1426 1.98501 12.3204 2.41417 12.3204 2.91696C12.3204 3.41975 12.1426 3.84891 11.7871 4.20444L4.49543 11.4961C4.41926 11.5723 4.32893 11.6234 4.22443 11.6496L1.8911 12.2329C1.85394 12.2422 1.81623 12.2477 1.77797 12.2496C1.73972 12.2515 1.70164 12.2496 1.66376 12.2439C1.62587 12.2383 1.5889 12.229 1.55285 12.2161C1.51679 12.2032 1.48234 12.1869 1.44949 12.1671C1.41665 12.1474 1.38604 12.1247 1.35768 12.099C1.32931 12.0733 1.30372 12.045 1.28092 12.0143C1.25812 11.9835 1.23854 11.9507 1.22218 11.9161C1.20581 11.8815 1.19299 11.8456 1.1837 11.8085C1.16012 11.7141 1.16012 11.6198 1.1837 11.5255L1.76703 9.19213C1.79316 9.08765 1.8443 8.99732 1.92047 8.92116L9.21211 1.62948ZM10.0371 2.45444L2.74543 9.74611L2.33295 9.3336L2.89887 9.47507L2.31553 11.8085L1.74962 11.667L1.60814 11.101L3.94147 10.5177L4.08295 11.0836L3.67047 10.6712L10.9621 3.37948C11.0898 3.25176 11.1537 3.09759 11.1537 2.91696C11.1537 2.73634 11.0898 2.58216 10.9621 2.45444C10.8344 2.32672 10.6803 2.26286 10.4996 2.26286C10.319 2.26286 10.1648 2.32672 10.0371 2.45444Z" fill="#606060"/>
</g>
</g>
</svg>
