<svg width="36" height="36" viewBox="0 0 36 36" fill="none" xmlns="http://www.w3.org/2000/svg">
<path d="M27 0L33 6V34C33 35.1046 32.1046 36 31 36H5C3.89543 36 3 35.1046 3 34V2C3 0.895431 3.89543 5.63724e-08 5 0H27Z" fill="#E4E7EC"/>
<path d="M33 6H27V0L33 6Z" fill="#98A2B3"/>
<rect x="1.5" y="15" width="33" height="15" rx="2" fill="#CC400C"/>
<path d="M9 26V19H11.6766C12.2249 19 12.685 19.1003 13.0567 19.3008C13.4308 19.5013 13.7131 19.777 13.9036 20.1279C14.0965 20.4766 14.1929 20.873 14.1929 21.3174C14.1929 21.7663 14.0965 22.165 13.9036 22.5137C13.7108 22.8623 13.4262 23.1369 13.0498 23.3374C12.6734 23.5356 12.2098 23.6348 11.6592 23.6348H9.88523V22.5923H11.4849C11.8056 22.5923 12.0681 22.5376 12.2726 22.4282C12.477 22.3188 12.6281 22.1685 12.7256 21.9771C12.8255 21.7856 12.8755 21.5658 12.8755 21.3174C12.8755 21.069 12.8255 20.8503 12.7256 20.6611C12.6281 20.472 12.4759 20.325 12.2691 20.2202C12.0646 20.1131 11.8009 20.0596 11.478 20.0596H10.293V26H9Z" fill="white"/>
<path d="M17.7347 26H15.316V19H17.7835C18.4921 19 19.1009 19.1401 19.6097 19.4204C20.1209 19.6984 20.5135 20.0983 20.7877 20.6201C21.0619 21.1419 21.1989 21.7663 21.1989 22.4932C21.1989 23.2223 21.0607 23.849 20.7842 24.373C20.51 24.8971 20.1139 25.2993 19.5958 25.5796C19.08 25.8599 18.4596 26 17.7347 26ZM16.609 24.9028H17.672C18.1692 24.9028 18.5839 24.814 18.9162 24.6362C19.2484 24.4562 19.4982 24.1885 19.6655 23.833C19.8328 23.4753 19.9164 23.0286 19.9164 22.4932C19.9164 21.9577 19.8328 21.5133 19.6655 21.1602C19.4982 20.8047 19.2507 20.5392 18.9231 20.3638C18.5979 20.186 18.1936 20.0972 17.7103 20.0972H16.609V24.9028Z" fill="white"/>
<path d="M22.4275 26V19H27V20.063H23.7205V21.9634H26.6863V23.0264H23.7205V26H22.4275Z" fill="white"/>
</svg>
