<svg width="14" height="14" viewBox="0 0 14 14" fill="none" xmlns="http://www.w3.org/2000/svg">
<mask id="mask0_1003_5512" style="mask-type:luminance" maskUnits="userSpaceOnUse" x="0" y="0" width="14" height="14">
<path d="M0 0H14V14H0V0Z" fill="white"/>
</mask>
<g mask="url(#mask0_1003_5512)">
<mask id="mask1_1003_5512" style="mask-type:luminance" maskUnits="userSpaceOnUse" x="0" y="0" width="14" height="14">
<path d="M0 0H14V14H0V0Z" fill="white"/>
</mask>
<g mask="url(#mask1_1003_5512)">
<path d="M10.744 12.7245L6.66062 9.80782L6.99967 9.33315L7.33873 9.80782L3.2554 12.7245C3.22423 12.7468 3.19119 12.7658 3.15628 12.7816C3.12136 12.7973 3.08525 12.8095 3.04794 12.8181C3.01062 12.8268 2.97282 12.8317 2.93454 12.8329C2.89626 12.8341 2.85822 12.8315 2.82044 12.8252C2.78266 12.8189 2.74586 12.809 2.71003 12.7955C2.6742 12.7819 2.64004 12.765 2.60755 12.7447C2.57505 12.7244 2.54485 12.7012 2.51693 12.675C2.48902 12.6488 2.46393 12.6201 2.44166 12.5889C2.40633 12.5395 2.37939 12.4858 2.36083 12.4278C2.34228 12.37 2.33301 12.3106 2.33301 12.2498V2.91651C2.33301 2.43325 2.50386 2.02078 2.84557 1.67907C3.18728 1.33736 3.59976 1.1665 4.08301 1.1665H9.91634C10.3996 1.1665 10.8121 1.33736 11.1538 1.67907C11.4955 2.02077 11.6663 2.43325 11.6663 2.91651V12.2498C11.6663 12.2882 11.6626 12.3261 11.6551 12.3637C11.6477 12.4012 11.6366 12.4377 11.622 12.4731C11.6073 12.5084 11.5893 12.5421 11.5681 12.5739C11.5468 12.6058 11.5226 12.6352 11.4955 12.6623C11.4684 12.6894 11.4389 12.7136 11.4071 12.7349C11.3752 12.7561 11.3416 12.7741 11.3063 12.7888C11.2708 12.8034 11.2343 12.8145 11.1968 12.8219C11.1592 12.8294 11.1213 12.8331 11.083 12.8331C11.0222 12.8331 10.9629 12.8239 10.905 12.8054C10.8471 12.7868 10.7934 12.7598 10.744 12.7245ZM11.422 11.7752L11.083 12.2498H10.4997V2.91651C10.4997 2.75542 10.4427 2.61793 10.3289 2.50402C10.2149 2.39012 10.0774 2.33317 9.91634 2.33317H4.08301C3.92193 2.33317 3.78443 2.39012 3.67053 2.50402C3.55663 2.61793 3.49967 2.75542 3.49967 2.91651V12.2498H2.91634L2.57729 11.7752L6.66062 8.85848C6.6852 8.84093 6.711 8.82539 6.738 8.81186C6.765 8.79828 6.79288 8.78689 6.82165 8.7777C6.85042 8.76846 6.87973 8.7615 6.90958 8.75684C6.93943 8.75217 6.96946 8.74984 6.99967 8.74984C7.02988 8.74984 7.05991 8.75217 7.08976 8.75684C7.11961 8.7615 7.14893 8.76846 7.1777 8.7777C7.20647 8.78689 7.23435 8.79828 7.26135 8.81186C7.28835 8.82539 7.31415 8.84093 7.33873 8.85848L11.422 11.7752Z" fill="#606060"/>
</g>
</g>
</svg>
