<svg width="14" height="14" viewBox="0 0 14 14" fill="none" xmlns="http://www.w3.org/2000/svg">
<g clip-path="url(#clip0_1003_5545)">
<path fill-rule="evenodd" clip-rule="evenodd" d="M0.87101 7.40037C0.630502 7.40037 0.435547 7.59512 0.435547 7.83563V13.0595C0.435547 13.3 0.630502 13.4948 0.87101 13.4948H6.09489C6.33519 13.4948 6.53014 13.3 6.53014 13.0595V8.91321C6.53014 8.0776 5.85292 7.40037 5.01731 7.40037H0.87101ZM13.06 7.40037H8.9137C8.07808 7.40037 7.40086 8.0776 7.40086 8.91321V13.0595C7.40086 13.3 7.59561 13.4948 7.83611 13.4948H13.06C13.3005 13.4948 13.4952 13.3 13.4952 13.0595V7.83563C13.4952 7.59512 13.3005 7.40037 13.06 7.40037ZM8.9137 8.27088H12.6247V12.6243H8.27137V8.91321C8.27137 8.5584 8.55889 8.27088 8.9137 8.27088ZM1.30626 8.27088H5.01731C5.37191 8.27088 5.65943 8.5584 5.65943 8.91321V12.6243H1.30626V8.27088ZM0.87101 0.435059C0.630502 0.435059 0.435547 0.630014 0.435547 0.870521V6.0944C0.435547 6.3347 0.630502 6.52966 0.87101 6.52966H5.01731C5.85292 6.52966 6.53014 5.85243 6.53014 5.01682V0.870521C6.53014 0.630014 6.33519 0.435059 6.09489 0.435059H0.87101ZM7.83611 0.435059C7.59561 0.435059 7.40086 0.630014 7.40086 0.870521V5.01682C7.40086 5.85243 8.07808 6.52966 8.9137 6.52966H13.06C13.3005 6.52966 13.4952 6.3347 13.4952 6.0944V0.870521C13.4952 0.630014 13.3005 0.435059 13.06 0.435059H7.83611ZM8.27137 1.30577H12.6247V5.65894H8.9137C8.55889 5.65894 8.27137 5.37142 8.27137 5.01682V1.30577ZM1.30626 1.30577H5.65943V5.01682C5.65943 5.37142 5.37191 5.65894 5.01731 5.65894H1.30626V1.30577Z" fill="#606060"/>
</g>
<defs>
<clipPath id="clip0_1003_5545">
<rect width="14" height="14" fill="white"/>
</clipPath>
</defs>
</svg>
